SplineFontDB: 3.0
FontName: mwg_mathsyma
FullName: mwg_mathsyma
FamilyName: mwg_mathsyma
Weight: Regular-
Copyright: Copyright (C) 2012, Koichi Murase, 1994, 1995, Basil K. Malyshev. All Rights Reserved.\nBaKoMa Fonts Collection, Level-C.
Version: 1.0.8/2012-04-30
ItalicAngle: 0
UnderlinePosition: -136
UnderlineWidth: 20
Ascent: 819
Descent: 205
LayerCount: 2
Layer: 0 0 "+gMyXYgAA"  1
Layer: 1 0 "+Uk2XYgAA"  0
NeedsXUIDChange: 1
UniqueID: 4702302
FSType: 0
OS2Version: 0
OS2_WeightWidthSlopeOnly: 0
OS2_UseTypoMetrics: 0
CreationTime: 878738956
ModificationTime: 1335794935
OS2TypoAscent: 0
OS2TypoAOffset: 1
OS2TypoDescent: 0
OS2TypoDOffset: 1
OS2TypoLinegap: 92
OS2WinAscent: 0
OS2WinAOffset: 1
OS2WinDescent: 0
OS2WinDOffset: 1
HheadAscent: 0
HheadAOffset: 1
HheadDescent: 0
HheadDOffset: 1
OS2Vendor: 'PfEd'
MarkAttachClasses: 1
DEI: 91125
Encoding: Custom
UnicodeInterp: none
NameList: Adobe Glyph List
DisplaySize: -36
AntiAlias: 1
FitToEm: 1
WinInfo: 8715 21 14
BeginPrivate: 7
BlueValues 39 [-14 0 317 329 539 553 659 674 711 718]
OtherBlues 11 [-206 -199]
StdHW 4 [44]
StdVW 4 [44]
StemSnapV 10 [33 44 88]
BlueScale 9 0.0687917
StemSnapH 10 [33 44 61]
EndPrivate
BeginChars: 65550 47

StartChar: followsorequal
Encoding: -1 8829 1
Width: 799
VWidth: 1000
Flags: MW
HStem: -246 60<502 612.5 502 624.5> -63 60<186 296> 429 43<599.5 693 599.5 693>
VStem: 57 30<-220 -212 -212 -180 -220 -163> 711 30<-69 -37 -37 -29>
LayerCount: 2
Fore
SplineSet
72 -246 m 0
 61 -246 58 -228 57 -220 c 1
 57 -212 l 2
 57 -114 120 -3 228 -3 c 0
 371 -3 434 -186 570 -186 c 0
 655 -186 711 -109 711 -29 c 1
 712 -20 715 -3 726 -3 c 0
 737 -3 740 -20 741 -29 c 1
 741 -37 l 2
 741 -135 679 -246 570 -246 c 0
 427 -246 364 -63 228 -63 c 0
 144 -63 87 -140 87 -220 c 1
 86 -228 83 -246 72 -246 c 0
108 149 m 0
 94 149 86 160 86 173 c 1
 104 350 262 421 417 451 c 1
 262 480 104 551 86 729 c 1
 86 741 94 752 108 752 c 0
 119 752 127 743 129 733 c 0
 154 487 506 472 693 472 c 1
 703 470 712 462 712 451 c 0
 712 439 703 431 693 429 c 1
 505 429 154 414 129 169 c 0
 127 158 119 149 108 149 c 0
EndSplineSet
Validated: 1
EndChar

StartChar: nleqq
Encoding: 8816 8816 2
Width: 799
VWidth: 1000
Flags: W
HStem: -191 43<86.0066 227 287 711.993> 12 43<86.0066 296 356 711.993> 172 40<702 711.971> 733 42<699 711.961>
VStem: 150 41<-445.985 -433> 607 41<933 945.985>
LayerCount: 2
Fore
SplineSet
150 -425 m 0
 150 -422 150 -419 151 -417 c 2
 227 -191 l 1
 106 -191 l 1
 95 -189 86 -182 86 -170 c 0
 86 -158 95 -150 106 -148 c 1
 242 -148 l 1
 296 12 l 1
 106 12 l 1
 95 14 86 21 86 33 c 0
 86 45 95 53 106 55 c 1
 310 55 l 1
 397 310 l 1
 97 455 l 2
 90 458 86 466 86 473 c 0
 86 482 92 489 100 493 c 2
 528 699 l 1
 607 933 l 2
 609 941 618 946 627 946 c 0
 638 946 648 936 648 925 c 0
 648 922 648 919 647 917 c 2
 582 725 l 1
 683 773 l 2
 685 774 688 775 691 775 c 0
 702 775 712 765 712 753 c 0
 712 744 706 737 699 733 c 2
 563 668 l 1
 450 333 l 1
 702 212 l 2
 708 209 712 200 712 193 c 0
 712 181 702 172 691 172 c 0
 688 172 685 172 683 173 c 2
 436 292 l 1
 356 55 l 1
 693 55 l 1
 703 52 712 45 712 33 c 0
 712 21 703 14 693 12 c 1
 341 12 l 1
 287 -148 l 1
 693 -148 l 1
 703 -151 712 -158 712 -170 c 0
 712 -182 703 -189 693 -191 c 1
 273 -191 l 1
 191 -433 l 2
 189 -441 180 -446 171 -446 c 0
 160 -446 150 -436 150 -425 c 0
157 473 m 1
 411 351 l 1
 509 642 l 1
 157 473 l 1
EndSplineSet
Validated: 1
EndChar

StartChar: NameMe.8817
Encoding: 8817 8817 3
Width: 799
VWidth: 1000
Flags: W
HStem: -191 43<86.0066 227 287 711.993> 12 43<86.0066 296 356 711.993> 172 41<86.0175 100> 735 40<86.1152 97>
VStem: 150 41<-445.985 -433> 607 41<933 945.985>
LayerCount: 2
Fore
SplineSet
150 -425 m 0
 150 -422 150 -419 151 -417 c 2
 227 -191 l 1
 106 -191 l 1
 95 -189 86 -182 86 -170 c 0
 86 -158 95 -150 106 -148 c 1
 242 -148 l 1
 296 12 l 1
 106 12 l 1
 95 14 86 21 86 33 c 0
 86 45 95 53 106 55 c 1
 310 55 l 1
 396 308 l 1
 116 173 l 2
 113 172 110 172 108 172 c 0
 96 172 86 181 86 193 c 0
 86 202 92 209 100 213 c 2
 415 365 l 1
 478 551 l 1
 97 735 l 2
 90 738 86 746 86 753 c 0
 86 765 96 775 108 775 c 0
 110 775 113 774 116 773 c 2
 492 592 l 1
 607 933 l 2
 609 941 618 946 627 946 c 0
 638 946 648 936 648 925 c 0
 648 922 648 919 647 917 c 2
 531 574 l 1
 702 492 l 2
 708 489 712 480 712 473 c 0
 712 464 706 457 699 453 c 2
 450 334 l 1
 356 55 l 1
 693 55 l 1
 703 52 712 45 712 33 c 0
 712 21 703 14 693 12 c 1
 341 12 l 1
 287 -148 l 1
 693 -148 l 1
 703 -151 712 -158 712 -170 c 0
 712 -182 703 -189 693 -191 c 1
 273 -191 l 1
 191 -433 l 2
 189 -441 180 -446 171 -446 c 0
 160 -446 150 -436 150 -425 c 0
469 391 m 1
 641 473 l 1
 517 533 l 1
 469 391 l 1
EndSplineSet
Validated: 1
EndChar

StartChar: nlslant
Encoding: 8820 8820 4
Width: 799
VWidth: 1000
Flags: W
HStem: -154 40<702 711.971> 49 40<702 711.971> 129 40<86.1152 97> 610 42<699 711.961>
VStem: 150 41<-322.985 -310> 607 41<810 822.985>
LayerCount: 2
Fore
SplineSet
150 -302 m 0
 150 -299 150 -296 151 -294 c 2
 288 37 l 1
 97 129 l 2
 90 132 86 140 86 147 c 0
 86 159 96 169 108 169 c 0
 110 169 113 168 116 167 c 2
 304 77 l 1
 358 206 l 1
 97 332 l 2
 90 335 86 343 86 350 c 0
 86 359 92 366 100 370 c 2
 506 565 l 1
 607 810 l 2
 610 818 618 823 627 823 c 0
 638 823 648 813 648 802 c 0
 648 799 648 796 647 794 c 2
 564 593 l 1
 683 650 l 2
 685 651 688 652 691 652 c 0
 702 652 712 642 712 630 c 0
 712 621 706 614 699 610 c 2
 540 534 l 1
 413 227 l 1
 702 89 l 2
 708 86 712 77 712 70 c 0
 712 58 702 49 691 49 c 0
 688 49 685 49 683 50 c 2
 397 188 l 1
 343 58 l 1
 702 -114 l 2
 708 -117 712 -126 712 -133 c 0
 712 -145 702 -154 691 -154 c 0
 688 -154 685 -154 683 -153 c 2
 327 18 l 1
 191 -310 l 2
 188 -318 180 -323 171 -323 c 0
 160 -323 150 -313 150 -302 c 0
157 350 m 1
 374 246 l 1
 481 506 l 1
 157 350 l 1
EndSplineSet
Validated: 1
EndChar

StartChar: ngslant
Encoding: 8821 8821 5
Width: 799
VWidth: 1000
Flags: W
HStem: -154 40<86.0291 97> 49 40<86.0291 97> 129 40<702 711.885> 610 42<86.0391 100>
VStem: 150 41<-322.985 -310> 607 41<810 822.985>
LayerCount: 2
Fore
SplineSet
150 -302 m 0
 150 -299 150 -296 151 -294 c 2
 233 -97 l 1
 116 -153 l 2
 113 -154 110 -154 108 -154 c 0
 96 -154 86 -145 86 -133 c 0
 86 -126 90 -117 97 -114 c 2
 257 -37 l 1
 337 157 l 1
 116 50 l 2
 113 49 110 49 108 49 c 0
 96 49 86 58 86 70 c 0
 86 77 90 86 97 89 c 2
 362 216 l 1
 454 440 l 1
 100 610 l 2
 92 614 86 621 86 630 c 0
 86 642 96 652 108 652 c 0
 110 652 113 651 116 650 c 2
 471 480 l 1
 607 810 l 2
 610 818 618 823 627 823 c 0
 638 823 648 813 648 802 c 0
 648 799 648 796 647 794 c 2
 509 461 l 1
 699 370 l 2
 706 366 712 359 712 350 c 0
 712 343 708 335 702 332 c 2
 395 185 l 1
 315 -9 l 1
 683 167 l 2
 685 168 688 169 691 169 c 0
 702 169 712 159 712 147 c 0
 712 140 708 132 702 129 c 2
 291 -69 l 1
 191 -310 l 2
 188 -318 180 -323 171 -323 c 0
 160 -323 150 -313 150 -302 c 0
420 244 m 1
 641 350 l 1
 493 421 l 1
 420 244 l 1
EndSplineSet
Validated: 1
EndChar

StartChar: npreceq
Encoding: 8929 8928 6
Width: 799
VWidth: 1000
Flags: W
HStem: -154 43<86.0066 209 273 711.993> 292 40<456 496.973> 303 47<384.481 398> 329 43<86.0066 316.399>
VStem: 150 41<-322.985 -310> 607 41<810 822.985> 669 43<49.008 140.606 557.348 651.992>
LayerCount: 2
Fore
SplineSet
150 -302 m 0xce
 150 -299 150 -296 151 -294 c 2
 209 -154 l 1
 106 -154 l 1
 95 -152 86 -144 86 -133 c 0
 86 -121 95 -113 106 -111 c 1
 227 -111 l 1
 398 303 l 1xae
 302 324 203 329 106 329 c 1
 95 331 86 339 86 351 c 0
 86 362 95 370 106 372 c 1x9e
 218 372 333 378 441 409 c 1
 607 810 l 2
 610 818 618 823 627 823 c 0
 638 823 648 813 648 802 c 0
 648 799 648 796 647 794 c 2
 495 427 l 1
 588 464 658 528 669 632 c 0
 671 643 679 652 691 652 c 0
 704 652 712 641 712 628 c 1
 698 491 597 413 473 374 c 1
 456 332 l 1
 585 295 697 216 712 72 c 1
 712 60 704 49 691 49 c 0
 679 49 671 57 669 68 c 0
 656 195 553 260 440 292 c 1
 273 -111 l 1
 693 -111 l 1
 703 -113 712 -121 712 -133 c 0
 712 -144 703 -152 693 -154 c 1
 256 -154 l 1
 191 -310 l 2
 188 -318 180 -323 171 -323 c 0
 160 -323 150 -313 150 -302 c 0xce
380 350 m 1
 392 348 403 346 414 343 c 1
 421 359 l 1
 407 356 394 353 380 350 c 1
EndSplineSet
Validated: 1
EndChar

StartChar: nsucceq
Encoding: 8930 8929 7
Width: 799
VWidth: 1000
Flags: W
HStem: -154 43<86.0066 209 273 711.993> 329 43<481.294 711.993>
VStem: 86 43<49.008 140.297 558.98 651.992> 150 41<-322.985 -310> 607 41<810 822.985>
LayerCount: 2
Fore
SplineSet
150 -302 m 0
 150 -299 150 -296 151 -294 c 2
 209 -154 l 1
 106 -154 l 1
 95 -152 86 -144 86 -133 c 0
 86 -121 95 -113 106 -111 c 1
 227 -111 l 1
 397 302 l 1
 272 274 144 211 129 68 c 0
 127 57 119 49 108 49 c 0
 94 49 86 60 86 72 c 1
 104 248 263 322 418 350 c 1
 261 384 105 446 86 628 c 1
 86 641 94 652 108 652 c 0
 119 652 127 643 129 632 c 0
 145 474 298 415 434 391 c 1
 607 810 l 2
 610 818 618 823 627 823 c 0
 638 823 648 813 648 802 c 0
 648 799 648 796 647 794 c 2
 478 384 l 1
 547 375 621 372 693 372 c 1
 703 370 712 362 712 351 c 0
 712 339 703 331 693 329 c 1
 611 329 526 325 448 312 c 1
 273 -111 l 1
 693 -111 l 1
 703 -113 712 -121 712 -133 c 0
 712 -144 703 -152 693 -154 c 1
 256 -154 l 1
 191 -310 l 2
 188 -318 180 -323 171 -323 c 0
 160 -323 150 -313 150 -302 c 0
EndSplineSet
Validated: 1
EndChar

StartChar: lnvert
Encoding: 8808 8808 8
Width: 799
VWidth: 1000
Flags: W
HStem: -192 43<86.0066 378 421 711.993> 11 43<86.0066 378 421 711.993> 171 40<702 711.885> 733 41<699 711.983>
VStem: 378 43<-298.993 -192 -149 11 54 160.993>
LayerCount: 2
Fore
SplineSet
106 -192 m 1
 95 -190 86 -182 86 -171 c 0
 86 -159 95 -151 106 -149 c 1
 378 -149 l 1
 378 11 l 1
 106 11 l 1
 95 13 86 21 86 33 c 0
 86 44 95 52 106 54 c 1
 378 54 l 1
 378 141 l 1
 380 152 387 161 399 161 c 0
 411 161 418 152 421 141 c 1
 421 54 l 1
 693 54 l 1
 703 52 712 44 712 33 c 0
 712 21 703 13 693 11 c 1
 421 11 l 1
 421 -149 l 1
 693 -149 l 1
 703 -151 712 -159 712 -171 c 0
 712 -182 703 -190 693 -192 c 1
 421 -192 l 1
 421 -279 l 1
 418 -290 411 -299 399 -299 c 0
 387 -299 380 -290 378 -279 c 1
 378 -192 l 1
 106 -192 l 1
97 454 m 2
 90 457 86 465 86 473 c 0
 86 482 92 489 100 493 c 2
 683 773 l 2
 685 774 688 774 691 774 c 0
 702 774 712 764 712 753 c 0
 712 743 706 736 699 733 c 2
 157 473 l 1
 702 211 l 2
 708 208 712 200 712 193 c 0
 712 181 702 171 691 171 c 0
 688 171 685 171 683 173 c 2
 97 454 l 2
EndSplineSet
Validated: 1
EndChar

StartChar: gnvert
Encoding: 8809 8809 9
Width: 799
VWidth: 1000
Flags: W
HStem: -192 43<86.0066 378 421 711.993> 11 43<86.0066 378 421 711.993> 171 42<86.0391 100> 734 40<86.0466 97>
VStem: 378 43<-298.993 -192 -149 11 54 160.993>
LayerCount: 2
Fore
SplineSet
106 -192 m 1
 95 -190 86 -182 86 -171 c 0
 86 -159 95 -151 106 -149 c 1
 378 -149 l 1
 378 11 l 1
 106 11 l 1
 95 13 86 21 86 33 c 0
 86 44 95 52 106 54 c 1
 378 54 l 1
 378 141 l 1
 380 152 387 161 399 161 c 0
 411 161 418 152 421 141 c 1
 421 54 l 1
 693 54 l 1
 703 52 712 44 712 33 c 0
 712 21 703 13 693 11 c 1
 421 11 l 1
 421 -149 l 1
 693 -149 l 1
 703 -151 712 -159 712 -171 c 0
 712 -182 703 -190 693 -192 c 1
 421 -192 l 1
 421 -279 l 1
 418 -290 411 -299 399 -299 c 0
 387 -299 380 -290 378 -279 c 1
 378 -192 l 1
 106 -192 l 1
86 193 m 0
 86 202 92 209 100 213 c 2
 641 473 l 1
 97 734 l 2
 90 737 86 745 86 753 c 0
 86 764 96 774 108 774 c 0
 110 774 113 774 116 773 c 2
 702 491 l 2
 708 488 712 480 712 473 c 0
 712 463 706 456 699 453 c 2
 116 173 l 2
 113 171 110 171 108 171 c 0
 96 171 86 181 86 193 c 0
EndSplineSet
Validated: 1
EndChar

StartChar: varsubsetneqq
Encoding: 10952 10952 10
Width: 799
VWidth: 1000
Flags: W
HStem: -235 43<86.0066 287 365 711.993> -32 43<86.0066 415 493 711.993> 171 43<299.095 544 622 711.993> 308 20G<652 661> 731 43<299.095 711.993>
VStem: 86 43<375.237 570.241>
LayerCount: 2
Fore
SplineSet
106 -235 m 1
 95 -233 86 -225 86 -214 c 0
 86 -202 95 -194 106 -192 c 1
 314 -192 l 1
 415 -32 l 1
 106 -32 l 1
 95 -30 86 -22 86 -11 c 0
 86 1 95 9 106 11 c 1
 442 11 l 1
 544 171 l 1
 397 171 l 2
 230 171 86 303 86 473 c 0
 86 642 230 774 397 774 c 2
 693 774 l 1
 703 772 712 764 712 753 c 0
 712 741 703 733 693 731 c 1
 401 731 l 2
 256 731 129 621 129 473 c 0
 129 324 256 214 401 214 c 2
 571 214 l 1
 638 319 l 2
 641 325 649 328 655 328 c 0
 667 328 677 318 677 307 c 0
 677 303 676 299 674 296 c 2
 622 214 l 1
 693 214 l 1
 703 212 712 204 712 193 c 0
 712 181 703 173 693 171 c 1
 595 171 l 1
 493 11 l 1
 693 11 l 1
 703 9 712 1 712 -11 c 0
 712 -22 703 -30 693 -32 c 1
 466 -32 l 1
 365 -192 l 1
 693 -192 l 1
 703 -194 712 -202 712 -214 c 0
 712 -225 703 -233 693 -235 c 1
 337 -235 l 1
 271 -340 l 2
 267 -346 260 -349 253 -349 c 0
 241 -349 232 -339 232 -328 c 0
 232 -324 233 -320 235 -317 c 2
 287 -235 l 1
 106 -235 l 1
EndSplineSet
Validated: 1
EndChar

StartChar: varsupsetneqq
Encoding: 10953 10953 11
Width: 799
VWidth: 1000
Flags: W
HStem: -235 43<86.0066 157 221 711.993> -32 43<86.0066 239 303 711.993> 171 43<86.0066 321 385 498.905> 308 20G<394.5 405> 731 43<86.0066 498.905>
VStem: 121 42<-348.967 -336> 379 42<315 327.967> 669 43<375.237 570.241>
LayerCount: 2
Fore
SplineSet
121 -328 m 0
 121 -325 122 -322 123 -320 c 2
 157 -235 l 1
 106 -235 l 1
 95 -233 86 -225 86 -214 c 0
 86 -202 95 -194 106 -192 c 1
 174 -192 l 1
 239 -32 l 1
 106 -32 l 1
 95 -30 86 -22 86 -11 c 0
 86 1 95 9 106 11 c 1
 256 11 l 1
 321 171 l 1
 106 171 l 1
 95 173 86 181 86 193 c 0
 86 204 95 212 106 214 c 1
 338 214 l 1
 379 315 l 2
 382 323 390 328 399 328 c 0
 411 328 421 318 421 307 c 0
 421 304 420 301 419 299 c 2
 385 214 l 1
 397 214 l 2
 542 214 669 324 669 473 c 0
 669 621 542 731 397 731 c 2
 106 731 l 1
 95 733 86 741 86 753 c 0
 86 764 95 772 106 774 c 1
 401 774 l 2
 568 774 712 642 712 473 c 0
 712 303 568 171 401 171 c 2
 367 171 l 1
 303 11 l 1
 693 11 l 1
 703 9 712 1 712 -11 c 0
 712 -22 703 -30 693 -32 c 1
 285 -32 l 1
 221 -192 l 1
 693 -192 l 1
 703 -194 712 -202 712 -214 c 0
 712 -225 703 -233 693 -235 c 1
 203 -235 l 1
 163 -336 l 2
 159 -344 151 -349 143 -349 c 0
 131 -349 121 -339 121 -328 c 0
EndSplineSet
Validated: 1
EndChar

StartChar: varsubsetneq
Encoding: 8842 8842 12
Width: 799
VWidth: 1000
Flags: W
HStem: -154 43<108.006 270 361 711.993> 49 43<299.095 437 528 711.993> 609 43<299.095 711.993>
VStem: 86 43<253.237 448.241>
LayerCount: 2
Fore
SplineSet
200 -247 m 0
 200 -241 203 -236 206 -232 c 2
 270 -154 l 1
 127 -154 l 1
 116 -152 108 -144 108 -133 c 0
 108 -121 116 -113 127 -111 c 1
 305 -111 l 1
 437 49 l 1
 397 49 l 2
 230 49 86 181 86 351 c 0
 86 520 230 652 397 652 c 2
 693 652 l 1
 703 650 712 642 712 631 c 0
 712 619 703 611 693 609 c 1
 401 609 l 2
 256 609 129 499 129 351 c 0
 129 202 256 92 401 92 c 2
 472 92 l 1
 561 200 l 2
 565 204 571 206 576 206 c 0
 588 206 598 196 598 185 c 0
 598 179 595 174 592 170 c 2
 528 92 l 1
 693 92 l 1
 703 90 712 82 712 71 c 0
 712 59 703 51 693 49 c 1
 493 49 l 1
 361 -111 l 1
 693 -111 l 1
 703 -113 712 -121 712 -133 c 0
 712 -144 703 -152 693 -154 c 1
 326 -154 l 1
 237 -262 l 2
 233 -266 227 -268 222 -268 c 0
 210 -268 200 -258 200 -247 c 0
EndSplineSet
Validated: 1
EndChar

StartChar: varsupsetneq
Encoding: 8843 8843 13
Width: 799
VWidth: 1000
Flags: W
HStem: -154 43<86.0066 143 223 690.993> 49 43<86.0066 277 357 498.905> 609 43<86.0066 498.905>
VStem: 669 43<253.237 448.241>
LayerCount: 2
Fore
SplineSet
86 -247 m 0
 86 -243 87 -239 89 -236 c 2
 143 -154 l 1
 106 -154 l 1
 95 -152 86 -144 86 -133 c 0
 86 -121 95 -113 106 -111 c 1
 172 -111 l 1
 277 49 l 1
 106 49 l 1
 95 51 86 59 86 71 c 0
 86 82 95 90 106 92 c 1
 306 92 l 1
 375 197 l 2
 379 203 386 206 393 206 c 0
 405 206 414 196 414 185 c 0
 414 181 414 177 411 174 c 2
 357 92 l 1
 397 92 l 2
 542 92 669 202 669 351 c 0
 669 499 542 609 397 609 c 2
 106 609 l 1
 95 611 86 619 86 631 c 0
 86 642 95 650 106 652 c 1
 401 652 l 2
 568 652 712 520 712 351 c 0
 712 181 568 49 401 49 c 2
 329 49 l 1
 223 -111 l 1
 671 -111 l 1
 682 -113 691 -121 691 -133 c 0
 691 -144 682 -152 671 -154 c 1
 195 -154 l 1
 125 -259 l 2
 121 -265 114 -268 108 -268 c 0
 96 -268 86 -258 86 -247 c 0
EndSplineSet
Validated: 1
EndChar

StartChar: nsubseteqq
Encoding: 8840 8840 14
Width: 799
VWidth: 1000
Flags: W
HStem: -235 43<86.0066 162 228 711.993> -32 43<86.0066 251 317 711.993> 171 43<297.18 343 407 711.993> 731 43<299.095 588 654 711.993>
VStem: 86 43<373.741 570.241> 121 42<-352.961 -339> 635 42<839 852.961>
LayerCount: 2
Fore
SplineSet
121 -331 m 0xf6
 121 -328 122 -326 123 -323 c 2
 162 -235 l 1
 106 -235 l 1
 95 -233 86 -225 86 -214 c 0
 86 -202 95 -194 106 -192 c 1
 181 -192 l 1
 251 -32 l 1
 106 -32 l 1
 95 -30 86 -22 86 -11 c 0
 86 1 95 9 106 11 c 1
 270 11 l 1
 343 176 l 1
 198 202 86 323 86 473 c 0xfa
 86 642 230 774 397 774 c 2
 607 774 l 1
 635 839 l 2
 639 847 646 853 655 853 c 0
 667 853 677 843 677 831 c 0
 677 828 676 826 675 823 c 2
 654 774 l 1
 693 774 l 1
 703 772 712 764 712 753 c 0
 712 741 703 733 693 731 c 1
 635 731 l 1
 407 214 l 1
 693 214 l 1
 703 212 712 204 712 193 c 0
 712 181 703 173 693 171 c 1
 388 171 l 1
 317 11 l 1
 693 11 l 1
 703 9 712 1 712 -11 c 0
 712 -22 703 -30 693 -32 c 1
 298 -32 l 1
 228 -192 l 1
 693 -192 l 1
 703 -194 712 -202 712 -214 c 0
 712 -225 703 -233 693 -235 c 1
 209 -235 l 1
 163 -339 l 2
 159 -347 152 -353 143 -353 c 0
 131 -353 121 -343 121 -331 c 0xf6
361 217 m 1
 588 731 l 1
 401 731 l 2
 256 731 129 621 129 473 c 0
 129 341 232 234 361 217 c 1
EndSplineSet
Validated: 1
EndChar

StartChar: nsupseteqq
Encoding: 8841 8841 15
Width: 799
VWidth: 1000
Flags: W
HStem: -235 43<86.0066 162 228 711.993> -32 43<86.0066 251 317 711.993> 171 43<86.0066 341 407 506.025> 731 43<86.0066 504.201>
VStem: 121 42<-352.961 -339> 635 42<839 852.961> 669 43<373.972 573.24>
LayerCount: 2
Fore
SplineSet
121 -331 m 0xfa
 121 -328 122 -326 123 -323 c 2
 162 -235 l 1
 106 -235 l 1
 95 -233 86 -225 86 -214 c 0
 86 -202 95 -194 106 -192 c 1
 181 -192 l 1
 251 -32 l 1
 106 -32 l 1
 95 -30 86 -22 86 -11 c 0
 86 1 95 9 106 11 c 1
 270 11 l 1
 341 171 l 1
 106 171 l 1
 95 173 86 181 86 193 c 0
 86 204 95 212 106 214 c 1
 360 214 l 1
 564 677 l 1
 516 713 457 731 397 731 c 2
 106 731 l 1
 95 733 86 741 86 753 c 0
 86 764 95 772 106 774 c 1
 401 774 l 2
 465 774 529 754 582 718 c 1
 635 839 l 2
 639 847 646 853 655 853 c 0
 667 853 677 843 677 831 c 0xfc
 677 828 676 826 675 823 c 2
 616 690 l 1
 677 634 712 555 712 473 c 0
 712 303 568 171 401 171 c 2
 388 171 l 1
 317 11 l 1
 693 11 l 1
 703 9 712 1 712 -11 c 0
 712 -22 703 -30 693 -32 c 1
 298 -32 l 1
 228 -192 l 1
 693 -192 l 1
 703 -194 712 -202 712 -214 c 0
 712 -225 703 -233 693 -235 c 1
 209 -235 l 1
 163 -339 l 2
 159 -347 152 -353 143 -353 c 0
 131 -353 121 -343 121 -331 c 0xfa
407 214 m 1
 547 214 669 332 669 473 c 0xfa
 669 538 643 601 598 648 c 1
 407 214 l 1
EndSplineSet
Validated: 1
EndChar

StartChar: shortbar
Encoding: 8739 8739 16
Width: 228
VWidth: 1000
Flags: W
VStem: 93 43<-21.9934 430.993>
LayerCount: 2
Fore
SplineSet
93 -3 m 1
 93 412 l 1
 95 422 102 431 114 431 c 0
 126 431 133 422 136 412 c 1
 136 -3 l 1
 133 -13 126 -22 114 -22 c 0
 102 -22 95 -13 93 -3 c 1
EndSplineSet
Validated: 1
EndChar

StartChar: nshortbar
Encoding: 8740 8740 17
Width: 228
VWidth: 1000
Flags: W
VStem: 93 43<-21.9934 196 305 430.993>
LayerCount: 2
Fore
SplineSet
93 -3 m 1
 93 196 l 1
 16 114 l 2
 12 110 6 108 0 108 c 0
 -12 108 -22 118 -22 129 c 0
 -22 135 -19 140 -16 144 c 2
 93 259 l 1
 93 412 l 1
 95 422 102 431 114 431 c 0
 126 431 133 422 136 412 c 1
 136 305 l 1
 212 386 l 2
 215 390 221 392 227 392 c 0
 239 392 249 382 249 371 c 0
 249 365 246 360 243 356 c 2
 136 242 l 1
 136 -3 l 1
 133 -13 126 -22 114 -22 c 0
 102 -22 95 -13 93 -3 c 1
EndSplineSet
Validated: 1
EndChar

StartChar: shortparallel
Encoding: 8741 8741 18
Width: 399
VWidth: 1000
Flags: W
VStem: 57 43<-21.9934 430.993> 299 43<-21.9934 430.993>
LayerCount: 2
Fore
SplineSet
57 -3 m 1
 57 412 l 1
 59 422 66 431 78 431 c 0
 90 431 97 422 100 412 c 1
 100 -3 l 1
 97 -13 90 -22 78 -22 c 0
 66 -22 59 -13 57 -3 c 1
299 -3 m 1
 299 412 l 1
 301 422 308 431 320 431 c 0
 332 431 339 422 342 412 c 1
 342 -3 l 1
 339 -13 332 -22 320 -22 c 0
 308 -22 301 -13 299 -3 c 1
EndSplineSet
Validated: 1
EndChar

StartChar: nshortparallel
Encoding: 8742 8742 19
Width: 399
VWidth: 1000
Flags: W
VStem: 57 43<-21.9934 139 215 430.993> 299 43<-21.9934 285 361 430.993>
LayerCount: 2
Fore
SplineSet
57 -3 m 1
 57 139 l 1
 11 111 l 2
 8 109 4 108 0 108 c 0
 -12 108 -22 118 -22 129 c 0
 -22 136 -18 143 -13 147 c 2
 57 189 l 1
 57 412 l 1
 59 422 67 431 79 431 c 0
 90 431 98 422 100 412 c 1
 100 215 l 1
 299 335 l 1
 299 412 l 1
 301 422 309 431 320 431 c 0
 332 431 340 422 342 412 c 1
 342 361 l 1
 388 389 l 2
 391 391 395 392 399 392 c 0
 411 392 421 382 421 371 c 0
 421 364 417 357 412 353 c 2
 342 311 l 1
 342 -3 l 1
 340 -13 332 -22 320 -22 c 0
 309 -22 301 -13 299 -3 c 1
 299 285 l 1
 100 165 l 1
 100 -3 l 1
 98 -13 90 -22 79 -22 c 0
 67 -22 60 -13 57 -3 c 1
EndSplineSet
Validated: 1
EndChar

StartChar: emptyset0
Encoding: 8709 8709 20
Width: 513
VWidth: 1000
Flags: W
HStem: -78 21<130.5 143> -22 25<238.5 277 238.5 286.5> 691 25<235 275> 752 20<370 382.5>
VStem: 47 71<311 385> 395 71<321.5 380 306 407.5>
LayerCount: 2
Fore
SplineSet
174 -2 m 5
 162 -44 173 -6 161 -48 c 4
 155 -68 151 -78 135 -78 c 0
 126 -78 114 -70 114 -56 c 0
 114 -55 131 4 137 25 c 1
 47 105 47 276 47 345 c 0
 47 425 51 524 91 604 c 0
 127 678 187 716 257 716 c 0
 294 716 325 703 339 695 c 1
 351 737 339 699 352 742 c 0
 359 762 362 772 378 772 c 0
 387 772 399 764 399 750 c 0
 399 749 382 690 376 669 c 1
 466 585 466 415 466 345 c 0
 466 267 463 173 426 94 c 0
 385 7 317 -22 256 -22 c 0
 218 -22 185 -8 174 -2 c 5
151 73 m 1
 329 665 l 1
 321 671 293 691 257 691 c 0
 213 691 155 664 134 578 c 0
 118 515 118 437 118 357 c 0
 118 265 118 139 151 73 c 1
362 624 m 1
 184 31 l 1
 195 22 221 3 256 3 c 0
 298 3 358 28 381 129 c 1
 395 196 395 286 395 357 c 0
 395 458 395 562 362 624 c 1
EndSplineSet
Validated: 1
EndChar

StartChar: A
Encoding: 65 65 21
Width: 821
VWidth: 1000
Flags: W
HStem: -30 56<673.5 763.5> 165 56<417 604 417 610> 703 20<658.5 669>
VStem: 587 87<559 601 601 601 674 674>
LayerCount: 2
Fore
SplineSet
610 165 m 1
 331 165 l 1
 242 34 173 -51 121 -51 c 0
 74 -51 27 -7 27 33 c 0
 27 61 49 111 65 111 c 0
 69 111 70 106 72 102 c 0
 86 56 133 43 151 43 c 0
 177 43 202 69 219 85 c 0
 257 123 387 303 500 509 c 0
 529 560 558 614 581 666 c 1
 587 674 l 1
 605 708 653 723 664 723 c 0
 674 723 674 719 674 699 c 2
 674 604 l 2
 674 514 679 423 686 333 c 0
 696 197 704 151 715 104 c 0
 728 49 734 26 762 26 c 0
 765 26 766 27 777 32 c 0
 794 41 805 43 810 43 c 0
 814 43 819 41 819 36 c 0
 819 14 738 -30 696 -30 c 0
 651 -30 645 -6 634 35 c 0
 622 81 614 124 610 165 c 1
587 601 m 1
 586 601 l 1
 572 575 557 542 529 490 c 0
 491 420 464 373 456 359 c 0
 412 287 382 242 359 205 c 1
 385 221 401 221 417 221 c 2
 604 221 l 1
 593 378 587 469 587 558 c 2
 587 601 l 1
EndSplineSet
Validated: 1
EndChar

StartChar: B
Encoding: 66 66 22
Width: 673
VWidth: 1000
Flags: W
HStem: -22 56<328 358> 650 56<510 513.5>
VStem: 555 87<158 245.5>
LayerCount: 2
Fore
SplineSet
284 685 m 2
 262 543 l 1
 263 543 l 1
 344 648 465 706 555 706 c 0
 634 706 679 661 679 605 c 0
 679 502 540 431 479 406 c 1
 571 390 642 333 642 240 c 0
 642 76 430 -22 286 -22 c 0
 176 -22 134 42 134 47 c 0
 134 58 172 95 217 96 c 1
 252 52 303 34 353 34 c 0
 443 34 555 68 555 196 c 0
 555 295 467 352 367 352 c 0
 344 352 325 348 317 348 c 0
 311 348 306 348 306 355 c 0
 306 380 373 403 410 416 c 0
 522 454 592 485 592 561 c 0
 592 619 539 650 488 650 c 0
 419 650 372 615 317 531 c 0
 247 425 211 285 197 230 c 0
 171 129 141 72 118 26 c 0
 105 0 59 -22 41 -22 c 0
 38 -22 31 -21 31 -16 c 0
 31 -14 31 -12 35 -4 c 0
 83 91 99 130 138 309 c 0
 168 447 184 551 196 636 c 1
 176 627 147 612 136 612 c 0
 131 612 126 612 126 619 c 0
 126 636 160 654 213 680 c 0
 233 690 263 705 274 705 c 0
 281 705 287 705 284 685 c 2
EndSplineSet
Validated: 1
EndChar

StartChar: C
Encoding: 67 67 23
Width: 542
VWidth: 1000
Flags: W
HStem: -25 56<234 292> 649 56<393 415.5>
VStem: 14 87<173 240.5> 460 87<578.5 665.5>
LayerCount: 2
Fore
SplineSet
512 158 m 0
 512 132 373 -25 211 -25 c 0
 85 -25 14 67 14 207 c 0
 14 274 34 418 141 547 c 0
 199 617 323 705 463 705 c 0
 511 705 547 691 547 640 c 0
 547 593 492 496 483 486 c 0
 470 471 433 450 415 450 c 0
 411 450 405 451 405 457 c 0
 405 459 405 461 413 476 c 0
 422 491 460 560 460 597 c 0
 460 634 435 649 396 649 c 0
 298 649 240 606 192 537 c 0
 130 446 101 331 101 251 c 0
 101 95 190 31 278 31 c 0
 367 31 407 90 430 124 c 0
 441 140 481 165 503 165 c 0
 507 165 512 163 512 158 c 0
EndSplineSet
Validated: 1
EndChar

StartChar: D
Encoding: 68 68 24
Width: 793
VWidth: 1000
Flags: W
HStem: 0 56<106 277> 627 56<367 396 367 367>
VStem: 701 87<313.5 492.5>
LayerCount: 2
Fore
SplineSet
216 0 m 2
 106 0 l 2
 86 0 85 1 85 7 c 0
 85 12 96 34 146 53 c 1
 222 236 269 430 283 627 c 1
 136 621 121 576 108 538 c 0
 99 512 49 488 31 488 c 0
 22 488 21 493 21 496 c 0
 21 497 30 573 153 635 c 0
 248 683 318 683 412 683 c 0
 495 683 601 683 681 635 c 0
 710 618 788 571 788 450 c 0
 788 177 451 0 216 0 c 2
396 627 m 2
 367 627 l 1
 341 359 256 149 218 56 c 1
 277 56 l 2
 515 56 701 204 701 407 c 0
 701 578 532 627 396 627 c 2
EndSplineSet
Validated: 1
EndChar

StartChar: E
Encoding: 69 69 25
Width: 542
VWidth: 1000
Flags: W
HStem: -22 56<236.5 287.5> 649 56<389 402>
VStem: 29 87<106 130.5> 146 87<494 532 494 534.5> 489 87<606.5 620>
LayerCount: 2
Fore
SplineSet
243 363 m 1
 187 380 146 419 146 475 c 0
 146 594 319 705 459 705 c 0
 511 705 576 694 576 637 c 0
 576 576 507 540 482 540 c 0
 478 540 473 542 473 547 c 0
 473 550 473 552 479 562 c 0
 485 572 489 583 489 594 c 0
 489 646 412 649 392 649 c 0
 250 649 233 546 233 518 c 0
 233 470 273 408 409 404 c 0
 413 404 418 403 418 397 c 0
 418 386 382 350 333 348 c 0
 171 342 116 195 116 146 c 0
 116 66 203 34 270 34 c 0
 363 34 404 90 429 124 c 0
 443 143 482 165 502 165 c 0
 506 165 511 163 511 158 c 0
 511 136 372 -22 203 -22 c 0
 109 -22 29 22 29 102 c 0
 29 159 78 281 243 363 c 1
EndSplineSet
Validated: 1
EndChar

StartChar: F
Encoding: 70 70 26
Width: 736
VWidth: 1000
Flags: W
HStem: -33 129<90 97.5 81 164.5> 302 56<427 605 405 672> 627 56<505 690 505 505>
LayerCount: 2
Fore
SplineSet
605 302 m 1
 405 302 l 1
 363 190 305 78 297 66 c 0
 264 11 192 -33 137 -33 c 0
 43 -33 18 39 18 46 c 0
 18 64 69 96 93 96 c 0
 102 96 102 95 107 85 c 0
 129 36 173 24 206 23 c 1
 218 39 363 302 427 627 c 1
 280 621 265 576 253 540 c 0
 242 507 188 488 176 488 c 0
 173 488 166 488 166 495 c 0
 166 501 173 530 202 564 c 0
 258 630 375 683 498 683 c 2
 763 683 l 2
 834 683 848 667 848 645 c 0
 848 613 788 587 771 587 c 0
 761 587 761 588 761 601 c 1
 758 615 756 627 690 627 c 2
 505 627 l 1
 487 543 460 451 427 358 c 1
 672 358 l 2
 688 358 693 358 693 351 c 0
 693 322 636 293 616 293 c 0
 612 293 603 293 605 301 c 1
 605 302 l 1
EndSplineSet
Validated: 1
EndChar

StartChar: G
Encoding: 71 71 27
Width: 610
VWidth: 1000
Flags: W
HStem: -119 56<174.5 307> 68 56<245 266> 649 56<371 440.5>
VStem: 45 87<260 339 260 392.5> 528 87<578.5 663>
LayerCount: 2
Fore
SplineSet
451 161 m 1
 389 110 306 68 226 68 c 0
 99 68 45 166 45 276 c 0
 45 509 255 705 483 705 c 0
 564 705 615 688 615 638 c 0
 615 597 539 472 475 472 c 0
 471 472 465 473 465 479 c 0
 465 484 468 488 474 495 c 0
 483 506 528 563 528 594 c 0
 528 641 465 649 416 649 c 0
 326 649 267 618 224 568 c 0
 142 470 132 359 132 319 c 0
 132 201 197 124 293 124 c 0
 404 124 468 233 493 316 c 0
 503 351 559 370 571 370 c 0
 578 370 581 366 581 362 c 0
 581 359 545 202 503 103 c 0
 425 -79 299 -119 222 -119 c 0
 127 -119 56 -79 56 -70 c 0
 56 -52 109 -20 132 -20 c 0
 137 -20 141 -23 145 -25 c 0
 203 -57 257 -63 289 -63 c 0
 325 -63 347 -62 389 11 c 0
 403 35 424 74 451 161 c 1
EndSplineSet
Validated: 1
EndChar

StartChar: H
Encoding: 72 72 28
Width: 871
VWidth: 1000
Flags: W
HStem: -48 56<608 719> 348 56<375 587> 627 56<190 329.5>
VStem: 281 87<546.5 634.5> 574 87<85.5 112.5>
LayerCount: 2
Fore
SplineSet
375 404 m 2
 649 404 l 1
 668 457 742 632 770 655 c 0
 792 673 817 683 830 683 c 0
 832 683 840 683 840 676 c 0
 840 674 840 672 832 658 c 0
 758 517 661 283 661 108 c 0
 661 63 661 8 709 8 c 0
 729 8 736 13 739 21 c 0
 753 57 806 74 817 74 c 0
 826 74 827 69 827 66 c 0
 827 21 723 -48 642 -48 c 0
 574 -48 574 9 574 64 c 0
 574 161 588 207 633 359 c 1
 615 348 598 348 587 348 c 2
 316 348 l 1
 293 256 244 115 208 24 c 0
 205 19 201 14 194 7 c 0
 183 -3 151 -22 132 -22 c 0
 129 -22 122 -22 122 -15 c 0
 122 -13 129 5 133 16 c 0
 241 292 281 512 281 581 c 0
 281 605 264 627 232 627 c 0
 148 627 125 595 108 537 c 0
 101 515 51 488 31 488 c 0
 22 488 21 493 21 496 c 0
 21 502 30 534 54 566 c 0
 101 630 201 683 299 683 c 0
 360 683 368 644 368 625 c 0
 368 592 351 470 329 394 c 1
 346 404 367 404 375 404 c 2
EndSplineSet
Validated: 1
EndChar

StartChar: I
Encoding: 73 73 29
Width: 562
VWidth: 1000
Flags: W
HStem: 0 56<68 138 138 151 218 326> 627 56<355 398 455 455 455 565>
LayerCount: 2
Fore
SplineSet
377 440 m 2
 338 285 l 2
 322 221 287 113 218 56 c 1
 387 56 l 2
 437 56 440 63 446 81 c 0
 455 106 503 130 522 130 c 0
 526 130 533 130 533 124 c 0
 533 86 440 0 326 0 c 2
 1 0 l 2
 -19 0 -20 1 -20 7 c 0
 -20 17 15 56 68 56 c 2
 138 56 l 2
 164 56 165 56 176 69 c 0
 222 128 244 215 276 343 c 0
 310 476 339 571 398 627 c 1
 294 627 l 2
 242 627 239 627 194 621 c 0
 138 613 129 605 118 576 c 0
 112 558 109 551 82 534 c 0
 69 526 55 518 39 518 c 0
 31 518 29 522 29 526 c 0
 29 541 55 609 158 652 c 0
 220 677 288 683 355 683 c 2
 632 683 l 2
 647 683 653 683 653 676 c 0
 653 667 617 627 565 627 c 2
 455 627 l 1
 434 602 418 564 407 535 c 0
 395 504 385 472 377 440 c 2
EndSplineSet
Validated: 1
EndChar

StartChar: J
Encoding: 74 74 30
Width: 696
VWidth: 1000
Flags: W
HStem: -119 56<251 267.5> 627 56<625 703>
VStem: 48 87<31.5 56.5>
LayerCount: 2
Fore
SplineSet
625 683 m 2
 838 683 l 2
 854 683 859 683 859 676 c 0
 859 665 822 630 779 627 c 0
 756 625 749 625 728 599 c 0
 660 516 617 371 574 202 c 1
 555 123 538 57 449 -22 c 0
 401 -65 313 -119 222 -119 c 0
 118 -119 48 -55 48 33 c 0
 48 80 59 88 72 99 c 0
 87 111 115 125 129 125 c 0
 136 125 140 124 140 117 c 0
 140 113 135 95 135 77 c 0
 135 -14 213 -63 289 -63 c 0
 334 -63 367 -48 394 -22 c 0
 456 37 471 94 482 140 c 0
 551 415 599 543 703 627 c 1
 564 627 l 2
 474 627 393 589 360 483 c 0
 351 455 300 432 283 432 c 0
 279 432 273 432 273 439 c 0
 273 441 279 481 321 534 c 0
 377 605 504 683 625 683 c 2
EndSplineSet
Validated: 1
EndChar

StartChar: K
Encoding: 75 75 31
Width: 782
VWidth: 1000
Flags: W
HStem: -22 45<506.5 568.5 506.5 580> 660 45
VStem: 245 63<382.5 433.5> 686 63<621 626.5>
LayerCount: 2
Fore
SplineSet
197 637 m 1
 177 627 147 612 136 612 c 0
 131 612 126 612 126 619 c 0
 126 636 160 654 213 680 c 0
 233 690 263 705 274 705 c 0
 285 705 285 701 285 690 c 0
 285 452 121 26 112 16 c 0
 84 -13 52 -22 41 -22 c 0
 38 -22 31 -22 31 -15 c 0
 31 -14 31 -12 42 15 c 0
 102 173 188 426 197 637 c 1
747 127 m 0
 747 79 645 -22 515 -22 c 0
 389 -22 245 313 245 400 c 0
 245 467 369 551 405 575 c 0
 538 664 643 705 689 705 c 0
 718 705 749 688 749 646 c 0
 749 596 697 592 696 592 c 0
 689 592 684 596 684 602 c 0
 684 605 686 612 686 618 c 0
 686 635 675 660 649 660 c 0
 618 660 527 620 425 550 c 0
 399 532 308 471 308 428 c 0
 308 337 458 23 555 23 c 0
 582 23 657 28 684 101 c 0
 694 129 729 137 735 137 c 0
 747 137 747 130 747 127 c 0
EndSplineSet
Validated: 1
EndChar

StartChar: L
Encoding: 76 76 32
Width: 707
VWidth: 1000
Flags: W
HStem: -22 62<423.5 538.5> 643 62<451 578.5>
VStem: 534 98<548.5 628.5>
LayerCount: 2
Fore
SplineSet
182 92 m 1
 199 97 219 97 222 97 c 0
 275 97 330 82 382 67 c 1
 428 55 481 40 530 40 c 0
 547 40 559 40 575 87 c 0
 586 119 647 145 664 145 c 0
 667 145 673 144 673 140 c 0
 673 87 559 -22 450 -22 c 0
 397 -22 342 -7 290 8 c 1
 221 26 187 35 135 35 c 1
 81 -21 44 -22 41 -22 c 0
 35 -22 32 -19 32 -16 c 0
 32 -11 38 2 68 29 c 0
 91 51 117 100 121 106 c 0
 149 162 158 197 172 250 c 0
 214 417 256 520 320 592 c 0
 373 653 465 705 543 705 c 0
 614 705 632 647 632 610 c 0
 632 566 622 557 602 543 c 0
 575 524 550 516 539 516 c 0
 531 516 530 520 530 523 c 0
 530 526 534 539 534 558 c 0
 534 602 511 643 463 643 c 0
 439 643 424 638 416 631 c 0
 340 557 297 406 269 298 c 0
 252 232 237 173 182 92 c 1
EndSplineSet
Validated: 1
EndChar

StartChar: M
Encoding: 77 77 33
Width: 1229
VWidth: 1000
Flags: W
HStem: -51 94<140.5 158 140.5 169> 685 20<430 443.5>
VStem: 973 87<139 144.5>
LayerCount: 2
Fore
SplineSet
1021 517 m 1
 817 285 l 2
 783 246 747 206 714 170 c 0
 692 147 585 35 571 35 c 0
 568 35 564 36 562 38 c 0
 549 56 520 110 500 159 c 0
 460 259 412 465 392 562 c 1
 357 387 220 -51 118 -51 c 0
 97 -51 28 -34 28 0 c 0
 28 27 49 76 65 76 c 0
 68 76 69 76 73 72 c 0
 97 50 133 43 148 43 c 0
 168 43 189 43 262 233 c 0
 340 435 360 569 374 659 c 0
 377 682 421 705 439 705 c 0
 448 705 449 703 452 687 c 2
 489 505 l 2
 502 439 522 371 541 304 c 0
 556 251 571 202 606 135 c 1
 726 253 753 279 880 426 c 2
 1119 702 l 2
 1122 704 1124 704 1125 704 c 0
 1132 704 1133 690 1133 689 c 0
 1133 683 1131 676 1130 670 c 0
 1102 553 1060 248 1060 140 c 0
 1060 138 1060 105 1063 71 c 0
 1066 48 1067 30 1094 27 c 1
 1105 34 1125 43 1137 43 c 0
 1145 43 1146 39 1146 35 c 0
 1146 15 1068 -29 1026 -29 c 0
 973 -29 973 16 973 97 c 0
 973 192 1003 417 1021 517 c 1
EndSplineSet
Validated: 1
EndChar

StartChar: N
Encoding: 78 78 34
Width: 842
VWidth: 1000
Flags: W
HStem: -51 94<87.5 94> 683 94<956 959>
LayerCount: 2
Fore
SplineSet
311 574 m 1
 279 418 l 2
 271 378 230 228 191 126 c 0
 174 79 125 -51 63 -51 c 0
 35 -51 -30 -31 -30 -1 c 0
 -30 27 -7 77 8 77 c 0
 10 77 12 75 15 73 c 0
 43 47 82 43 93 43 c 0
 115 43 136 43 199 244 c 0
 251 413 275 558 284 649 c 0
 285 666 286 672 304 686 c 0
 318 696 337 705 350 705 c 0
 358 705 359 704 364 688 c 2
 411 545 l 2
 454 415 511 276 512 272 c 0
 543 198 567 139 623 56 c 1
 660 213 757 619 808 703 c 0
 846 766 932 777 980 777 c 0
 995 777 1001 777 1001 761 c 0
 1001 743 984 684 959 683 c 1
 932 683 849 681 815 644 c 0
 809 636 789 569 784 552 c 2
 747 419 l 2
 710 286 678 152 649 17 c 1
 639 -3 604 -25 583 -25 c 0
 575 -25 574 -24 561 -6 c 0
 517 57 483 122 459 179 c 0
 403 309 355 442 312 574 c 1
 311 574 l 1
EndSplineSet
Validated: 1
EndChar

StartChar: O
Encoding: 79 79 35
Width: 816
VWidth: 1000
Flags: W
HStem: -22 56<302.5 403.5> 649 56<575 592>
VStem: 58 87<217.5 373 217.5 398.5> 708 87<333 503>
LayerCount: 2
Fore
SplineSet
795 478 m 0
 795 173 502 -22 305 -22 c 0
 133 -22 58 109 58 249 c 0
 58 548 360 705 394 705 c 0
 399 705 404 704 404 698 c 0
 404 683 374 666 357 657 c 0
 239 591 145 453 145 293 c 0
 145 142 233 34 372 34 c 0
 562 34 708 231 708 435 c 0
 708 571 640 649 544 649 c 0
 504 649 482 637 451 601 c 0
 414 558 394 512 385 493 c 0
 365 448 314 437 306 437 c 0
 302 437 295 437 295 443 c 0
 295 450 334 540 393 599 c 0
 458 665 539 705 611 705 c 0
 741 705 795 601 795 478 c 0
EndSplineSet
Validated: 1
EndChar

StartChar: P
Encoding: 80 80 36
Width: 716
VWidth: 1000
Flags: W
HStem: -50 21<123.5 130.5> 205 55 627 56<367 367 367 424>
VStem: 667 87<443 534.5>
LayerCount: 2
Fore
SplineSet
367 627 m 1
 348 495 l 2
 319 291 209 2 196 -12 c 0
 168 -41 136 -50 125 -50 c 0
 122 -50 115 -49 115 -44 c 0
 115 -42 115 -40 125 -16 c 0
 219 216 264 417 283 627 c 1
 136 621 121 576 108 538 c 0
 99 512 49 488 31 488 c 0
 22 488 21 493 21 496 c 0
 21 503 38 573 140 628 c 0
 232 678 317 683 354 683 c 2
 497 683 l 2
 592 683 754 650 754 524 c 0
 754 360 513 205 326 205 c 0
 312 205 307 205 307 212 c 0
 307 221 340 259 395 261 c 0
 596 268 667 405 667 481 c 0
 667 588 531 627 424 627 c 2
 367 627 l 1
EndSplineSet
Validated: 1
EndChar

StartChar: Q
Encoding: 81 81 37
Width: 839
VWidth: 1000
Flags: W
HStem: -125 56<624.5 650> 102 56<316 345.5> 649 56<462.5 561>
VStem: 115 87<281 394 281 394.5> 706 87<362 481.5>
LayerCount: 2
Fore
SplineSet
228 28 m 2
 261 28 l 2
 424 28 503 62 571 123 c 0
 662 203 706 311 706 413 c 0
 706 550 625 649 497 649 c 0
 314 649 202 455 202 333 c 0
 202 229 269 158 363 158 c 0
 389 158 425 163 465 185 c 0
 490 199 504 199 505 199 c 0
 511 199 514 197 514 192 c 0
 514 167 395 102 296 102 c 0
 169 102 115 195 115 289 c 0
 115 500 361 705 564 705 c 0
 724 705 793 583 793 457 c 0
 793 210 560 41 395 -4 c 1
 551 -56 591 -69 658 -69 c 0
 693 -69 709 -63 722 -24 c 0
 734 10 787 28 799 28 c 0
 807 28 809 26 809 20 c 0
 809 -22 709 -125 591 -125 c 0
 511 -125 436 -100 361 -74 c 0
 246 -35 205 -30 150 -28 c 0
 145 -28 140 -28 140 -21 c 0
 140 -11 176 28 228 28 c 2
EndSplineSet
Validated: 1
EndChar

StartChar: R
Encoding: 82 82 38
Width: 873
VWidth: 1000
Flags: W
HStem: -22 56<664.5 683> 627 56<370 422 367 505.5>
VStem: 666 87<509.5 545.5>
LayerCount: 2
Fore
SplineSet
422 627 m 2
 367 627 l 1
 349 457 309 295 259 156 c 0
 228 69 207 23 206 20 c 0
 193 1 153 -22 132 -22 c 0
 129 -22 122 -21 122 -16 c 0
 122 -14 122 -12 129 3 c 0
 253 304 272 510 283 627 c 1
 136 621 121 576 108 538 c 0
 99 512 49 488 31 488 c 0
 22 488 21 493 21 496 c 0
 21 497 30 573 153 635 c 0
 248 683 315 683 425 683 c 0
 586 683 753 683 753 558 c 0
 753 461 667 356 506 295 c 1
 527 270 541 244 573 177 c 1
 606 105 640 34 689 34 c 0
 740 34 762 63 781 89 c 0
 797 111 835 130 853 130 c 0
 857 130 864 130 864 124 c 0
 864 101 744 -22 622 -22 c 0
 564 -22 536 21 487 126 c 0
 423 265 401 269 368 274 c 0
 367 274 363 274 363 280 c 0
 363 290 397 327 449 329 c 0
 627 336 666 459 666 515 c 0
 666 576 622 627 422 627 c 2
EndSplineSet
Validated: 1
EndChar

StartChar: S
Encoding: 83 83 39
Width: 622
VWidth: 1000
Flags: W
HStem: -22 56<243.5 312.5> 219 48<119 157> 649 56<424 431.5>
VStem: 19 87<134.5 169.5 134.5 173> 193 87<495 548> 501 87<169 224.5>
LayerCount: 2
Fore
SplineSet
119 219 m 0
 106 196 106 171 106 168 c 0
 106 101 192 34 295 34 c 0
 335 34 404 44 444 72 c 0
 487 103 501 154 501 184 c 0
 501 265 416 310 340 342 c 0
 286 365 193 404 193 490 c 0
 193 606 357 705 491 705 c 0
 508 705 550 704 596 685 c 0
 628 672 656 657 656 607 c 0
 656 564 640 552 630 544 c 0
 610 528 584 518 573 518 c 0
 569 518 563 520 563 525 c 0
 563 528 564 532 565 534 c 0
 566 539 569 553 569 564 c 0
 569 608 543 619 520 629 c 0
 479 647 439 649 424 649 c 0
 419 649 354 649 319 621 c 1
 297 602 280 567 280 534 c 0
 280 456 369 418 411 401 c 1
 491 366 588 320 588 228 c 0
 588 93 397 -22 228 -22 c 0
 106 -22 19 51 19 125 c 0
 19 221 116 267 154 267 c 0
 160 267 165 266 165 260 c 0
 165 244 120 219 119 219 c 0
EndSplineSet
Validated: 1
EndChar

StartChar: T
Encoding: 84 84 40
Width: 563
VWidth: 1000
Flags: W
HStem: 0 62<287 347> 621 62<335 440 514 514 514 607> 697 20<809 814>
LayerCount: 2
Fore
SplineSet
472 489 m 2
 431 326 l 2
 400 204 352 115 287 62 c 1
 426 62 l 2
 441 62 448 62 448 56 c 0
 448 44 401 0 347 0 c 2
 146 0 l 2
 125 0 124 1 124 7 c 0
 124 16 163 57 220 62 c 0
 233 63 234 64 249 83 c 0
 250 84 263 100 276 125 c 0
 302 174 320 226 334 280 c 2
 375 443 l 2
 383 473 392 503 402 533 c 0
 407 547 423 597 440 621 c 1
 221 621 l 2
 194 621 188 621 168 595 c 0
 143 564 133 534 129 519 c 0
 116 477 49 457 40 457 c 0
 35 457 30 458 30 464 c 0
 30 478 68 602 210 663 c 0
 258 683 271 683 335 683 c 2
 622 683 l 2
 650 683 679 683 707 684 c 0
 739 685 741 685 756 695 c 0
 790 716 808 717 810 717 c 0
 818 717 819 714 819 710 c 0
 819 696 788 663 736 641 c 0
 710 630 676 621 607 621 c 2
 514 621 l 1
 498 578 483 534 472 489 c 2
EndSplineSet
Validated: 1
EndChar

StartChar: U
Encoding: 85 85 41
Width: 642
VWidth: 1000
Flags: W
HStem: -22 56<46 212> 627 56<104.5 194.5>
VStem: -16 87<108 138> 147 87<570 658.5> 449 87<-2.5 118>
LayerCount: 2
Fore
SplineSet
508 302 m 1
 507 302 l 1
 468 251 414 180 339 112 c 0
 240 22 148 -22 85 -22 c 0
 7 -22 -16 40 -16 101 c 0
 -16 175 21 261 84 406 c 0
 110 465 147 548 147 592 c 0
 147 620 134 627 117 627 c 0
 92 627 76 619 64 612 c 1
 54 605 32 593 18 593 c 0
 13 593 8 593 8 600 c 0
 8 621 108 683 184 683 c 0
 205 683 234 681 234 636 c 0
 234 587 198 506 152 400 c 1
 91 263 71 198 71 145 c 0
 71 71 107 34 152 34 c 0
 272 34 529 384 594 568 c 0
 596 573 617 635 620 640 c 0
 633 661 675 683 694 683 c 0
 697 683 704 683 704 676 c 0
 704 668 691 630 678 597 c 0
 652 531 536 181 536 55 c 0
 536 32 556 28 557 28 c 0
 570 35 583 43 598 43 c 0
 602 43 608 41 608 36 c 0
 608 15 531 -28 492 -28 c 0
 468 -28 449 -17 449 12 c 0
 449 54 459 111 469 153 c 0
 483 211 499 267 508 302 c 1
EndSplineSet
Validated: 1
EndChar

StartChar: V
Encoding: 86 86 42
Width: 632
VWidth: 1000
Flags: W
HStem: -46 21<196.5 204> 663 20<86.5 198 563 596>
VStem: 217 76<284 300.5> 632 45<474 609>
LayerCount: 2
Fore
SplineSet
280 86 m 1
 517 272 632 445 632 503 c 0
 632 528 618 582 549 589 c 0
 538 590 534 590 534 605 c 0
 534 624 550 683 576 683 c 0
 616 683 677 652 677 566 c 0
 677 491 625 355 487 205 c 0
 351 57 208 -46 200 -46 c 0
 193 -46 192 -34 192 -32 c 0
 192 -26 193 -22 195 -14 c 0
 202 27 217 150 217 260 c 0
 217 341 210 422 190 491 c 0
 150 626 74 630 44 632 c 0
 38 632 34 634 34 640 c 0
 34 653 70 683 103 683 c 0
 293 683 293 373 293 297 c 0
 293 271 293 205 280 86 c 1
EndSplineSet
Validated: 1
EndChar

StartChar: W
Encoding: 87 87 43
Width: 1017
VWidth: 1000
Flags: W
HStem: -46 21<155.5 165.5 698 705.5> 663 20<86.5 184.5 627 636.5 974.5 1003>
VStem: 194 76<333 358> 1020 45<525.5 542>
LayerCount: 2
Fore
SplineSet
764 92 m 1
 888 236 1020 434 1020 513 c 0
 1020 571 984 586 958 589 c 0
 950 590 945 591 945 605 c 0
 945 623 962 683 987 683 c 0
 1019 683 1065 658 1065 576 c 0
 1065 475 989 333 925 236 c 0
 843 111 712 -46 699 -46 c 0
 697 -46 695 -45 694 -43 c 0
 692 -39 692 -37 691 -8 c 0
 688 119 663 356 589 577 c 1
 500 415 474 368 387 242 c 0
 308 127 172 -46 159 -46 c 0
 152 -46 152 -34 152 -30 c 0
 152 -26 152 -21 155 -9 c 0
 173 63 194 217 194 331 c 0
 194 385 190 459 170 519 c 0
 135 627 74 630 44 632 c 0
 39 632 34 634 34 640 c 0
 34 653 70 683 103 683 c 0
 266 683 270 446 270 368 c 0
 270 298 262 206 250 127 c 1
 293 178 448 377 574 621 c 1
 571 628 570 630 567 640 c 1
 581 671 622 683 632 683 c 0
 641 683 642 682 651 655 c 0
 715 474 751 284 764 92 c 1
EndSplineSet
Validated: 1
EndChar

StartChar: X
Encoding: 88 88 44
Width: 732
VWidth: 1000
Flags: W
HStem: 0 56<497 611> 627 56<320 428.5>
VStem: 52 87<41 114> 700 127<631.5 641.5>
LayerCount: 2
Fore
SplineSet
505 398 m 1
 614 462 l 2
 640 477 665 495 690 513 c 0
 733 545 740 556 740 582 c 0
 740 594 738 623 707 627 c 0
 703 628 700 629 700 634 c 0
 700 649 748 683 778 683 c 0
 803 683 827 666 827 625 c 0
 827 597 820 568 734 505 c 0
 655 447 545 385 509 364 c 1
 509 360 513 318 528 188 c 0
 540 77 558 56 611 56 c 1
 628 87 675 104 687 104 c 0
 690 104 697 104 697 97 c 0
 697 65 627 0 535 0 c 0
 459 0 450 58 440 150 c 2
 422 313 l 1
 265 221 l 2
 239 206 214 188 189 170 c 0
 146 138 139 127 139 101 c 0
 139 86 143 59 169 56 c 0
 176 55 179 55 179 49 c 0
 179 34 131 0 101 0 c 0
 67 0 52 25 52 57 c 0
 52 87 58 116 157 186 c 0
 246 250 392 332 419 347 c 1
 412 405 408 453 401 510 c 0
 388 609 368 627 320 627 c 1
 303 597 258 579 243 579 c 0
 238 579 234 580 234 586 c 0
 234 617 303 683 396 683 c 0
 461 683 477 640 488 556 c 0
 496 495 498 459 505 398 c 1
EndSplineSet
Validated: 1
EndChar

StartChar: Y
Encoding: 89 89 45
Width: 685
VWidth: 1000
Flags: W
HStem: -136 79<166 193> 632 51<164.5 190.5>
VStem: 344 76<156.5 257.5> 691 41<477 608.5>
LayerCount: 2
Fore
SplineSet
418 99 m 1
 551 214 691 434 691 520 c 0
 691 530 691 595 607 604 c 0
 601 605 595 607 595 620 c 0
 595 628 604 683 634 683 c 0
 674 683 732 651 732 566 c 0
 732 504 682 326 501 121 c 0
 385 -10 227 -136 159 -136 c 0
 75 -136 32 -65 32 -22 c 0
 32 3 51 39 64 39 c 0
 69 39 70 35 73 23 c 0
 89 -38 148 -57 184 -57 c 0
 232 -57 339 26 340 33 c 0
 344 86 344 155 344 158 c 0
 344 174 344 302 324 400 c 0
 296 532 245 632 136 632 c 1
 116 607 85 598 76 598 c 0
 70 598 65 600 65 606 c 0
 65 621 131 683 198 683 c 0
 411 683 420 320 420 195 c 0
 420 164 420 130 418 99 c 1
EndSplineSet
Validated: 1
EndChar

StartChar: Z
Encoding: 90 90 46
Width: 742
VWidth: 1000
Flags: W
HStem: 0 62<454 570> 350 45<315 467 363 419 363 477> 621 62<397 401>
LayerCount: 2
Fore
SplineSet
477 350 m 1
 292 181 l 2
 280 170 249 144 236 134 c 1
 224 123 193 96 181 86 c 1
 200 90 225 90 229 90 c 0
 271 90 334 84 388 77 c 0
 434 71 511 62 559 62 c 0
 581 62 582 62 598 85 c 0
 615 111 622 133 627 150 c 0
 637 181 698 208 715 208 c 0
 718 208 725 208 725 202 c 0
 725 199 711 130 648 74 c 1
 616 44 554 0 480 0 c 0
 428 0 347 10 306 15 c 0
 204 28 157 28 149 28 c 0
 117 28 106 24 91 16 c 0
 85 13 61 0 47 0 c 0
 39 0 38 3 38 7 c 0
 38 20 100 64 117 81 c 1
 137 99 191 142 211 161 c 0
 237 184 263 208 290 231 c 0
 320 256 390 324 419 350 c 1
 324 350 l 2
 306 350 298 350 298 359 c 0
 298 366 312 395 363 395 c 2
 467 395 l 1
 596 528 604 535 656 596 c 1
 645 593 633 593 622 593 c 0
 585 593 537 602 493 609 c 1
 437 620 410 621 392 621 c 0
 313 621 303 597 290 558 c 0
 282 536 225 504 203 504 c 0
 200 504 193 505 193 510 c 0
 193 564 322 683 472 683 c 0
 511 683 553 676 581 670 c 1
 650 658 674 655 713 655 c 1
 738 674 765 683 775 683 c 0
 778 683 784 682 784 677 c 0
 784 662 587 453 535 406 c 0
 532 402 527 398 527 396 c 0
 527 394 539 394 543 394 c 0
 552 394 611 392 611 362 c 0
 611 340 577 323 560 323 c 0
 550 323 549 327 548 333 c 0
 546 341 544 348 477 350 c 1
EndSplineSet
Validated: 1
EndChar
